<svg width="21" height="18" viewBox="0 0 21 18" fill="none" xmlns="http://www.w3.org/2000/svg">
<path d="M11.6603 0.289355C12.8249 0.294954 13.1918 0.68919 13.5439 1.14249C13.8406 1.52461 14.1268 1.9487 14.3915 2.21735C15.1098 2.94642 15.6702 2.96374 15.856 2.98818C16.1914 3.03233 16.6358 3.10332 16.9543 3.16759C18.1352 3.40587 18.6903 3.69696 18.9378 3.94562C19.904 4.9162 20.1783 7.84572 20.1783 9.83117C20.1783 11.8166 19.904 14.8715 18.9378 15.8421C18.4126 16.3697 16.503 17.3904 10.1686 17.3904C3.83426 17.3904 1.92467 16.3697 1.39947 15.8421C0.43328 14.8715 0.158936 11.8166 0.158936 9.83117C0.158936 7.84572 0.433282 4.9162 1.39947 3.94562C1.647 3.69696 2.20207 3.40587 3.383 3.16759C3.70149 3.10332 4.06551 3.0429 4.4813 2.98818C4.66708 2.96373 5.22746 2.94642 5.9458 2.21735C6.21049 1.9487 6.49663 1.52461 6.79338 1.14249C7.14541 0.68919 7.51237 0.294953 8.67695 0.289354C10.1799 0.282129 10.1573 0.282129 11.6603 0.289355ZM10.1686 14.8681C13.0433 14.8681 15.3737 12.5377 15.3737 9.66304C15.3737 6.78838 13.0433 4.458 10.1686 4.458C7.29396 4.458 4.96359 6.78838 4.96359 9.66304C4.96359 12.5377 7.29396 14.8681 10.1686 14.8681ZM10.1686 12.8661C8.3996 12.8661 6.96552 11.4321 6.96552 9.66304C6.96552 7.89402 8.3996 6.45994 10.1686 6.45994C11.9377 6.45994 13.3717 7.89402 13.3717 9.66304C13.3717 11.4321 11.9377 12.8661 10.1686 12.8661Z" fill="#000000"/>
</svg>
